<mxfile host="app.diagrams.net" modified="2024-03-25T22:00:55.097Z" agent="Mozilla/5.0 (Windows NT 10.0; Win64; x64) AppleWebKit/537.36 (KHTML, like Gecko) Chrome/122.0.0.0 Safari/537.36" etag="2D1qUpMKZTPV82cFwh2j" version="24.1.0" type="device">
  <diagram name="PÃ¡gina-1" id="vbOGfk5iJTFSjeD28d8R">
    <mxGraphModel dx="1050" dy="522" grid="1" gridSize="10" guides="1" tooltips="1" connect="1" arrows="1" fold="1" page="1" pageScale="1" pageWidth="827" pageHeight="1169" math="0" shadow="0">
      <root>
        <mxCell id="0" />
        <mxCell id="1" parent="0" />
        <mxCell id="0VPr1rxeREGL98D7X7g_-1" value="1" style="ellipse;whiteSpace=wrap;html=1;aspect=fixed;" parent="1" vertex="1">
          <mxGeometry x="400" y="40" width="50" height="50" as="geometry" />
        </mxCell>
        <mxCell id="0VPr1rxeREGL98D7X7g_-14" value="" style="endArrow=classic;html=1;rounded=0;entryX=0.5;entryY=0;entryDx=0;entryDy=0;" parent="1" target="0VPr1rxeREGL98D7X7g_-1" edge="1">
          <mxGeometry width="50" height="50" relative="1" as="geometry">
            <mxPoint x="425" y="10" as="sourcePoint" />
            <mxPoint x="464" y="-60" as="targetPoint" />
          </mxGeometry>
        </mxCell>
        <mxCell id="dLSK0X0-4pFbgPWj33sY-8" value="" style="endArrow=classic;html=1;rounded=0;exitX=0.5;exitY=1;exitDx=0;exitDy=0;entryX=0.5;entryY=0;entryDx=0;entryDy=0;" parent="1" source="0VPr1rxeREGL98D7X7g_-1" target="h7CvGscx-MhI4LOxAnHq-3" edge="1">
          <mxGeometry width="50" height="50" relative="1" as="geometry">
            <mxPoint x="567" y="90" as="sourcePoint" />
            <mxPoint x="425" y="127" as="targetPoint" />
          </mxGeometry>
        </mxCell>
        <mxCell id="wJ7XbH-UEHDy7YCLtIV_-51" value="&lt;font style=&quot;font-size: 9px;&quot;&gt;true&lt;/font&gt;" style="text;html=1;align=center;verticalAlign=middle;resizable=0;points=[];autosize=1;strokeColor=none;fillColor=none;" parent="1" vertex="1">
          <mxGeometry x="350" y="250" width="40" height="30" as="geometry" />
        </mxCell>
        <mxCell id="h7CvGscx-MhI4LOxAnHq-1" value="&lt;div style=&quot;background-color: rgb(30, 31, 34); color: rgb(188, 190, 196); font-size: 10px;&quot;&gt;&lt;pre style=&quot;font-family: &amp;quot;JetBrains Mono&amp;quot;, monospace;&quot;&gt;&lt;span style=&quot;color:#cf8e6d;&quot;&gt;int &lt;/span&gt;index = &lt;span style=&quot;color:#2aacb8;&quot;&gt;0&lt;/span&gt;;&lt;/pre&gt;&lt;/div&gt;" style="text;whiteSpace=wrap;html=1;" vertex="1" parent="1">
          <mxGeometry x="459" y="40" width="81" height="40" as="geometry" />
        </mxCell>
        <mxCell id="h7CvGscx-MhI4LOxAnHq-2" value="&lt;div style=&quot;background-color: rgb(30, 31, 34); color: rgb(188, 190, 196); font-size: 10px;&quot;&gt;&lt;pre style=&quot;font-family: &amp;quot;JetBrains Mono&amp;quot;, monospace;&quot;&gt;&lt;span style=&quot;color:#cf8e6d;&quot;&gt;for&lt;/span&gt;(&lt;span style=&quot;color:#cf8e6d;&quot;&gt;int &lt;/span&gt;i=&lt;span style=&quot;color:#2aacb8;&quot;&gt;0&lt;/span&gt;; i&amp;lt;&lt;span style=&quot;color:#c77dbb;&quot;&gt;capacity&lt;/span&gt;; i++)&lt;/pre&gt;&lt;/div&gt;" style="text;whiteSpace=wrap;html=1;" vertex="1" parent="1">
          <mxGeometry x="459" y="130" width="170" height="40" as="geometry" />
        </mxCell>
        <mxCell id="h7CvGscx-MhI4LOxAnHq-3" value="2" style="ellipse;whiteSpace=wrap;html=1;aspect=fixed;" vertex="1" parent="1">
          <mxGeometry x="400" y="130" width="50" height="50" as="geometry" />
        </mxCell>
        <mxCell id="h7CvGscx-MhI4LOxAnHq-7" style="edgeStyle=orthogonalEdgeStyle;rounded=0;orthogonalLoop=1;jettySize=auto;html=1;exitX=0.5;exitY=1;exitDx=0;exitDy=0;" edge="1" parent="1" source="h7CvGscx-MhI4LOxAnHq-2" target="h7CvGscx-MhI4LOxAnHq-2">
          <mxGeometry relative="1" as="geometry" />
        </mxCell>
        <mxCell id="h7CvGscx-MhI4LOxAnHq-8" value="&lt;div style=&quot;background-color: rgb(30, 31, 34); color: rgb(188, 190, 196); font-size: 10px;&quot;&gt;&lt;pre style=&quot;font-family: &amp;quot;JetBrains Mono&amp;quot;, monospace;&quot;&gt;&lt;span style=&quot;color:#cf8e6d;&quot;&gt;if &lt;/span&gt;(&lt;span style=&quot;color:#c77dbb;&quot;&gt;children&lt;/span&gt;[i] == &lt;span style=&quot;color:#cf8e6d;&quot;&gt;null &lt;/span&gt;|| &lt;span style=&quot;color:#c77dbb;&quot;&gt;children&lt;/span&gt;[i].&lt;span style=&quot;color:#c77dbb;&quot;&gt;data&lt;/span&gt;.compareTo(elem)==&lt;span style=&quot;color:#2aacb8;&quot;&gt;0&lt;/span&gt;)&lt;/pre&gt;&lt;/div&gt;" style="text;whiteSpace=wrap;html=1;" vertex="1" parent="1">
          <mxGeometry x="459" y="220" width="490" height="70" as="geometry" />
        </mxCell>
        <mxCell id="h7CvGscx-MhI4LOxAnHq-9" value="3" style="ellipse;whiteSpace=wrap;html=1;aspect=fixed;" vertex="1" parent="1">
          <mxGeometry x="400" y="220" width="50" height="50" as="geometry" />
        </mxCell>
        <mxCell id="h7CvGscx-MhI4LOxAnHq-10" value="" style="endArrow=classic;html=1;rounded=0;exitX=0.5;exitY=1;exitDx=0;exitDy=0;entryX=0.5;entryY=0;entryDx=0;entryDy=0;" edge="1" parent="1" source="h7CvGscx-MhI4LOxAnHq-3" target="h7CvGscx-MhI4LOxAnHq-9">
          <mxGeometry width="50" height="50" relative="1" as="geometry">
            <mxPoint x="424.5" y="180" as="sourcePoint" />
            <mxPoint x="424.5" y="220" as="targetPoint" />
          </mxGeometry>
        </mxCell>
        <mxCell id="h7CvGscx-MhI4LOxAnHq-12" value="4" style="ellipse;whiteSpace=wrap;html=1;aspect=fixed;" vertex="1" parent="1">
          <mxGeometry x="322" y="291.96" width="50" height="50" as="geometry" />
        </mxCell>
        <mxCell id="h7CvGscx-MhI4LOxAnHq-13" value="" style="endArrow=classic;html=1;rounded=0;entryX=1;entryY=0;entryDx=0;entryDy=0;" edge="1" parent="1" target="h7CvGscx-MhI4LOxAnHq-12">
          <mxGeometry width="50" height="50" relative="1" as="geometry">
            <mxPoint x="407" y="263" as="sourcePoint" />
            <mxPoint x="346.5" y="291.96" as="targetPoint" />
          </mxGeometry>
        </mxCell>
        <mxCell id="h7CvGscx-MhI4LOxAnHq-14" value="&lt;div style=&quot;background-color:#1e1f22;color:#bcbec4&quot;&gt;&lt;pre style=&quot;font-family: &amp;quot;JetBrains Mono&amp;quot;, monospace;&quot;&gt;&lt;span style=&quot;color: rgb(207, 142, 109);&quot;&gt;&lt;font style=&quot;font-size: 10px;&quot;&gt;break&lt;/font&gt;&lt;/span&gt;&lt;/pre&gt;&lt;/div&gt;" style="text;whiteSpace=wrap;html=1;" vertex="1" parent="1">
          <mxGeometry x="282" y="290" width="40" height="10" as="geometry" />
        </mxCell>
        <mxCell id="h7CvGscx-MhI4LOxAnHq-15" value="5" style="ellipse;whiteSpace=wrap;html=1;aspect=fixed;" vertex="1" parent="1">
          <mxGeometry x="400" y="311.96" width="50" height="50" as="geometry" />
        </mxCell>
        <mxCell id="h7CvGscx-MhI4LOxAnHq-16" value="" style="endArrow=classic;html=1;rounded=0;exitX=0.5;exitY=1;exitDx=0;exitDy=0;entryX=0.5;entryY=0;entryDx=0;entryDy=0;" edge="1" parent="1" target="h7CvGscx-MhI4LOxAnHq-15">
          <mxGeometry width="50" height="50" relative="1" as="geometry">
            <mxPoint x="425" y="271.96" as="sourcePoint" />
            <mxPoint x="424.5" y="311.96" as="targetPoint" />
          </mxGeometry>
        </mxCell>
        <mxCell id="h7CvGscx-MhI4LOxAnHq-17" value="&lt;div style=&quot;background-color: rgb(30, 31, 34); color: rgb(188, 190, 196); font-size: 10px;&quot;&gt;&lt;pre style=&quot;font-family: &amp;quot;JetBrains Mono&amp;quot;, monospace;&quot;&gt;&lt;span style=&quot;color:#cf8e6d;&quot;&gt;if &lt;/span&gt;(&lt;span style=&quot;color:#c77dbb;&quot;&gt;children&lt;/span&gt;[i].&lt;span style=&quot;color:#c77dbb;&quot;&gt;data&lt;/span&gt;.compareTo(elem)&amp;gt;&lt;span style=&quot;color:#2aacb8;&quot;&gt;0&lt;/span&gt;)&lt;/pre&gt;&lt;/div&gt;" style="text;html=1;align=center;verticalAlign=middle;resizable=0;points=[];autosize=1;strokeColor=none;fillColor=none;" vertex="1" parent="1">
          <mxGeometry x="450" y="311.96" width="240" height="50" as="geometry" />
        </mxCell>
        <mxCell id="h7CvGscx-MhI4LOxAnHq-18" value="&lt;font style=&quot;font-size: 9px;&quot;&gt;false&lt;/font&gt;" style="text;html=1;align=center;verticalAlign=middle;resizable=0;points=[];autosize=1;strokeColor=none;fillColor=none;" vertex="1" parent="1">
          <mxGeometry x="430" y="270" width="40" height="30" as="geometry" />
        </mxCell>
        <mxCell id="h7CvGscx-MhI4LOxAnHq-19" value="6" style="ellipse;whiteSpace=wrap;html=1;aspect=fixed;" vertex="1" parent="1">
          <mxGeometry x="332" y="380" width="50" height="50" as="geometry" />
        </mxCell>
        <mxCell id="h7CvGscx-MhI4LOxAnHq-20" value="" style="endArrow=classic;html=1;rounded=0;exitX=0;exitY=1;exitDx=0;exitDy=0;entryX=1;entryY=0;entryDx=0;entryDy=0;" edge="1" parent="1" target="h7CvGscx-MhI4LOxAnHq-19" source="h7CvGscx-MhI4LOxAnHq-15">
          <mxGeometry width="50" height="50" relative="1" as="geometry">
            <mxPoint x="425" y="361.96" as="sourcePoint" />
            <mxPoint x="424.5" y="401.96" as="targetPoint" />
          </mxGeometry>
        </mxCell>
        <mxCell id="h7CvGscx-MhI4LOxAnHq-21" value="&lt;div style=&quot;background-color:#1e1f22;color:#bcbec4&quot;&gt;&lt;pre style=&quot;font-family: &amp;quot;JetBrains Mono&amp;quot;, monospace;&quot;&gt;&lt;font style=&quot;font-size: 10px;&quot;&gt;index--&lt;/font&gt;&lt;/pre&gt;&lt;/div&gt;" style="text;html=1;align=center;verticalAlign=middle;resizable=0;points=[];autosize=1;strokeColor=none;fillColor=none;" vertex="1" parent="1">
          <mxGeometry x="272" y="380" width="60" height="50" as="geometry" />
        </mxCell>
        <mxCell id="h7CvGscx-MhI4LOxAnHq-22" value="&lt;font style=&quot;font-size: 9px;&quot;&gt;true&lt;/font&gt;" style="text;html=1;align=center;verticalAlign=middle;resizable=0;points=[];autosize=1;strokeColor=none;fillColor=none;" vertex="1" parent="1">
          <mxGeometry x="350" y="341.96" width="40" height="30" as="geometry" />
        </mxCell>
        <mxCell id="h7CvGscx-MhI4LOxAnHq-24" value="7" style="ellipse;whiteSpace=wrap;html=1;aspect=fixed;" vertex="1" parent="1">
          <mxGeometry x="270" y="440" width="50" height="50" as="geometry" />
        </mxCell>
        <mxCell id="h7CvGscx-MhI4LOxAnHq-25" value="" style="endArrow=classic;html=1;rounded=0;exitX=0;exitY=1;exitDx=0;exitDy=0;entryX=1;entryY=0;entryDx=0;entryDy=0;" edge="1" parent="1" target="h7CvGscx-MhI4LOxAnHq-24" source="h7CvGscx-MhI4LOxAnHq-19">
          <mxGeometry width="50" height="50" relative="1" as="geometry">
            <mxPoint x="425" y="451.96" as="sourcePoint" />
            <mxPoint x="424.5" y="491.96" as="targetPoint" />
          </mxGeometry>
        </mxCell>
        <mxCell id="h7CvGscx-MhI4LOxAnHq-27" value="&lt;div style=&quot;background-color:#1e1f22;color:#bcbec4&quot;&gt;&lt;pre style=&quot;font-family: &amp;quot;JetBrains Mono&amp;quot;, monospace;&quot;&gt;&lt;span style=&quot;color: rgb(207, 142, 109);&quot;&gt;&lt;font style=&quot;font-size: 10px;&quot;&gt;break&lt;/font&gt;&lt;/span&gt;&lt;/pre&gt;&lt;/div&gt;" style="text;whiteSpace=wrap;html=1;" vertex="1" parent="1">
          <mxGeometry x="275" y="451.96000000000004" width="40" height="10" as="geometry" />
        </mxCell>
        <mxCell id="h7CvGscx-MhI4LOxAnHq-30" value="&lt;div style=&quot;background-color: rgb(30, 31, 34); color: rgb(188, 190, 196); font-size: 10px;&quot;&gt;&lt;pre style=&quot;font-family: &amp;quot;JetBrains Mono&amp;quot;, monospace;&quot;&gt;&lt;span style=&quot;color:#cf8e6d;&quot;&gt;if &lt;/span&gt;(&lt;span style=&quot;color:#c77dbb;&quot;&gt;children&lt;/span&gt;[i].&lt;span style=&quot;color:#c77dbb;&quot;&gt;data&lt;/span&gt;.compareTo(elem)&amp;lt;&lt;span style=&quot;color:#2aacb8;&quot;&gt;0&lt;/span&gt;)&lt;/pre&gt;&lt;/div&gt;" style="text;whiteSpace=wrap;html=1;" vertex="1" parent="1">
          <mxGeometry x="459" y="401.96" width="231" height="38.04" as="geometry" />
        </mxCell>
        <mxCell id="h7CvGscx-MhI4LOxAnHq-31" value="8" style="ellipse;whiteSpace=wrap;html=1;aspect=fixed;" vertex="1" parent="1">
          <mxGeometry x="400" y="401.96" width="50" height="50" as="geometry" />
        </mxCell>
        <mxCell id="h7CvGscx-MhI4LOxAnHq-32" value="" style="endArrow=classic;html=1;rounded=0;exitX=0.5;exitY=1;exitDx=0;exitDy=0;entryX=0.5;entryY=0;entryDx=0;entryDy=0;" edge="1" parent="1" target="h7CvGscx-MhI4LOxAnHq-31">
          <mxGeometry width="50" height="50" relative="1" as="geometry">
            <mxPoint x="425" y="361.96" as="sourcePoint" />
            <mxPoint x="424.5" y="401.96" as="targetPoint" />
          </mxGeometry>
        </mxCell>
        <mxCell id="h7CvGscx-MhI4LOxAnHq-33" value="&lt;font style=&quot;font-size: 9px;&quot;&gt;false&lt;/font&gt;" style="text;html=1;align=center;verticalAlign=middle;resizable=0;points=[];autosize=1;strokeColor=none;fillColor=none;" vertex="1" parent="1">
          <mxGeometry x="430" y="361.96" width="40" height="30" as="geometry" />
        </mxCell>
        <mxCell id="h7CvGscx-MhI4LOxAnHq-34" value="&lt;div style=&quot;background-color:#1e1f22;color:#bcbec4&quot;&gt;&lt;pre style=&quot;font-family: &amp;quot;JetBrains Mono&amp;quot;, monospace;&quot;&gt;&lt;font style=&quot;font-size: 10px;&quot;&gt;index++;&lt;/font&gt;&lt;/pre&gt;&lt;/div&gt;" style="text;whiteSpace=wrap;html=1;" vertex="1" parent="1">
          <mxGeometry x="230" y="510" width="102" height="70" as="geometry" />
        </mxCell>
        <mxCell id="h7CvGscx-MhI4LOxAnHq-36" value="" style="endArrow=classic;html=1;rounded=0;exitX=0;exitY=1;exitDx=0;exitDy=0;entryX=1;entryY=0;entryDx=0;entryDy=0;" edge="1" parent="1" source="h7CvGscx-MhI4LOxAnHq-31" target="h7CvGscx-MhI4LOxAnHq-37">
          <mxGeometry width="50" height="50" relative="1" as="geometry">
            <mxPoint x="441" y="480" as="sourcePoint" />
            <mxPoint x="380" y="470" as="targetPoint" />
          </mxGeometry>
        </mxCell>
        <mxCell id="h7CvGscx-MhI4LOxAnHq-37" value="9" style="ellipse;whiteSpace=wrap;html=1;aspect=fixed;" vertex="1" parent="1">
          <mxGeometry x="287" y="510" width="50" height="50" as="geometry" />
        </mxCell>
        <mxCell id="h7CvGscx-MhI4LOxAnHq-38" value="&lt;font style=&quot;font-size: 9px;&quot;&gt;true&lt;/font&gt;" style="text;html=1;align=center;verticalAlign=middle;resizable=0;points=[];autosize=1;strokeColor=none;fillColor=none;" vertex="1" parent="1">
          <mxGeometry x="337" y="450" width="40" height="30" as="geometry" />
        </mxCell>
        <mxCell id="h7CvGscx-MhI4LOxAnHq-41" value="" style="curved=1;endArrow=classic;html=1;rounded=0;" edge="1" parent="1">
          <mxGeometry width="50" height="50" relative="1" as="geometry">
            <mxPoint x="340" y="540" as="sourcePoint" />
            <mxPoint x="450" y="260" as="targetPoint" />
            <Array as="points">
              <mxPoint x="680" y="470" />
              <mxPoint x="830" y="460" />
              <mxPoint x="690" y="310" />
              <mxPoint x="690" y="300" />
              <mxPoint x="680" y="300" />
              <mxPoint x="640" y="270" />
            </Array>
          </mxGeometry>
        </mxCell>
        <mxCell id="h7CvGscx-MhI4LOxAnHq-42" value="&lt;div style=&quot;background-color: rgb(30, 31, 34); color: rgb(188, 190, 196); font-size: 10px;&quot;&gt;&lt;pre style=&quot;font-family: &amp;quot;JetBrains Mono&amp;quot;, monospace;&quot;&gt;&lt;span style=&quot;color:#cf8e6d;&quot;&gt;return &lt;/span&gt;index;&lt;/pre&gt;&lt;/div&gt;" style="text;whiteSpace=wrap;html=1;" vertex="1" parent="1">
          <mxGeometry x="70" y="350" width="130" height="70" as="geometry" />
        </mxCell>
        <mxCell id="h7CvGscx-MhI4LOxAnHq-43" value="10" style="ellipse;whiteSpace=wrap;html=1;aspect=fixed;" vertex="1" parent="1">
          <mxGeometry x="150" y="341.96" width="50" height="50" as="geometry" />
        </mxCell>
        <mxCell id="h7CvGscx-MhI4LOxAnHq-45" value="" style="endArrow=classic;html=1;rounded=0;entryX=1;entryY=0.5;entryDx=0;entryDy=0;exitX=0;exitY=0;exitDx=0;exitDy=0;" edge="1" parent="1" source="h7CvGscx-MhI4LOxAnHq-37" target="h7CvGscx-MhI4LOxAnHq-42">
          <mxGeometry width="50" height="50" relative="1" as="geometry">
            <mxPoint x="340" y="390" as="sourcePoint" />
            <mxPoint x="390" y="340" as="targetPoint" />
          </mxGeometry>
        </mxCell>
        <mxCell id="h7CvGscx-MhI4LOxAnHq-46" value="" style="endArrow=classic;html=1;rounded=0;entryX=1;entryY=0.5;entryDx=0;entryDy=0;exitX=0;exitY=0;exitDx=0;exitDy=0;" edge="1" parent="1" source="h7CvGscx-MhI4LOxAnHq-24" target="h7CvGscx-MhI4LOxAnHq-43">
          <mxGeometry width="50" height="50" relative="1" as="geometry">
            <mxPoint x="340" y="390" as="sourcePoint" />
            <mxPoint x="390" y="340" as="targetPoint" />
          </mxGeometry>
        </mxCell>
        <mxCell id="h7CvGscx-MhI4LOxAnHq-50" value="" style="endArrow=classic;html=1;rounded=0;entryX=1;entryY=0;entryDx=0;entryDy=0;exitX=0;exitY=1;exitDx=0;exitDy=0;" edge="1" parent="1" source="h7CvGscx-MhI4LOxAnHq-12" target="h7CvGscx-MhI4LOxAnHq-43">
          <mxGeometry width="50" height="50" relative="1" as="geometry">
            <mxPoint x="340" y="390" as="sourcePoint" />
            <mxPoint x="390" y="340" as="targetPoint" />
          </mxGeometry>
        </mxCell>
      </root>
    </mxGraphModel>
  </diagram>
</mxfile>
